<mxfile host="app.diagrams.net" modified="2024-02-19T21:48:21.246Z" agent="Mozilla/5.0 (Windows NT 10.0; Win64; x64) AppleWebKit/537.36 (KHTML, like Gecko) Chrome/121.0.0.0 Safari/537.36" etag="8M0iGPyiOjekK8Groz7b" version="23.1.5" type="device">
  <diagram name="Page-1" id="03018318-947c-dd8e-b7a3-06fadd420f32">
    <mxGraphModel dx="1764" dy="916" grid="1" gridSize="10" guides="1" tooltips="1" connect="1" arrows="1" fold="1" page="1" pageScale="1" pageWidth="1100" pageHeight="850" background="none" math="0" shadow="0">
      <root>
        <mxCell id="0" />
        <mxCell id="1" parent="0" />
        <mxCell id="I0dKGSRSYeda3cMNL7MX-3" value="" style="whiteSpace=wrap;html=1;rounded=0;shadow=0;labelBackgroundColor=none;strokeWidth=1;fillColor=#ce6bff;fontFamily=Verdana;fontSize=12;align=center;comic=1;strokeColor=#9673a6;fillStyle=solid;gradientColor=#ffffff;" vertex="1" parent="1">
          <mxGeometry x="20" y="20" width="1060" height="120" as="geometry" />
        </mxCell>
        <mxCell id="I0dKGSRSYeda3cMNL7MX-4" value="" style="verticalLabelPosition=bottom;shadow=0;dashed=0;align=center;html=1;verticalAlign=top;strokeWidth=1;shape=mxgraph.mockup.graphics.simpleIcon;strokeColor=#999999;" vertex="1" parent="1">
          <mxGeometry x="20" y="140" width="1060" height="690" as="geometry" />
        </mxCell>
        <mxCell id="677b7b8949515195-1" value="" style="whiteSpace=wrap;html=1;rounded=0;shadow=0;labelBackgroundColor=none;strokeColor=#000000;strokeWidth=1;fillColor=none;fontFamily=Verdana;fontSize=12;fontColor=#000000;align=center;comic=1;" parent="1" vertex="1">
          <mxGeometry x="20" y="20" width="1060" height="810" as="geometry" />
        </mxCell>
        <mxCell id="677b7b8949515195-2" value="LOGO" style="whiteSpace=wrap;html=1;rounded=0;shadow=0;labelBackgroundColor=none;strokeWidth=1;fontFamily=Verdana;fontSize=28;align=center;comic=1;" parent="1" vertex="1">
          <mxGeometry x="80" y="40" width="120" height="50" as="geometry" />
        </mxCell>
        <mxCell id="677b7b8949515195-4" value="Topic 1" style="text;html=1;points=[];align=left;verticalAlign=top;spacingTop=-4;fontSize=14;fontFamily=Verdana" parent="1" vertex="1">
          <mxGeometry x="280" y="55" width="60" height="20" as="geometry" />
        </mxCell>
        <mxCell id="677b7b8949515195-5" value="Topic 2" style="text;html=1;points=[];align=left;verticalAlign=top;spacingTop=-4;fontSize=14;fontFamily=Verdana" parent="1" vertex="1">
          <mxGeometry x="400" y="55" width="60" height="20" as="geometry" />
        </mxCell>
        <mxCell id="677b7b8949515195-6" value="Topic 3" style="text;html=1;points=[];align=left;verticalAlign=top;spacingTop=-4;fontSize=14;fontFamily=Verdana" parent="1" vertex="1">
          <mxGeometry x="520" y="55" width="60" height="20" as="geometry" />
        </mxCell>
        <mxCell id="677b7b8949515195-7" value="Topic 4" style="text;html=1;points=[];align=left;verticalAlign=top;spacingTop=-4;fontSize=14;fontFamily=Verdana" parent="1" vertex="1">
          <mxGeometry x="640" y="55" width="60" height="20" as="geometry" />
        </mxCell>
        <mxCell id="677b7b8949515195-8" value="" style="whiteSpace=wrap;html=1;rounded=0;shadow=0;labelBackgroundColor=none;strokeWidth=1;fillColor=#000000;fontFamily=Verdana;fontSize=12;align=center;comic=1;fillStyle=solid;gradientColor=none;gradientDirection=radial;strokeColor=default;opacity=30;" parent="1" vertex="1">
          <mxGeometry x="120" y="140" width="880" height="690" as="geometry" />
        </mxCell>
        <mxCell id="677b7b8949515195-9" value="" style="line;strokeWidth=1;html=1;rounded=0;shadow=0;labelBackgroundColor=none;fillColor=none;fontFamily=Verdana;fontSize=14;fontColor=#000000;align=center;comic=1;" parent="1" vertex="1">
          <mxGeometry x="20" y="130" width="1060" height="20" as="geometry" />
        </mxCell>
        <mxCell id="I0dKGSRSYeda3cMNL7MX-1" value="Topic 4" style="text;html=1;points=[];align=left;verticalAlign=top;spacingTop=-4;fontSize=14;fontFamily=Verdana" vertex="1" parent="1">
          <mxGeometry x="760" y="55" width="60" height="20" as="geometry" />
        </mxCell>
        <mxCell id="I0dKGSRSYeda3cMNL7MX-2" value="Topic 4" style="text;html=1;points=[];align=left;verticalAlign=top;spacingTop=-4;fontSize=14;fontFamily=Verdana" vertex="1" parent="1">
          <mxGeometry x="880" y="55" width="60" height="20" as="geometry" />
        </mxCell>
        <mxCell id="I0dKGSRSYeda3cMNL7MX-5" value="Title" style="text;strokeColor=default;fillColor=none;html=1;fontSize=24;fontStyle=1;verticalAlign=middle;align=center;" vertex="1" parent="1">
          <mxGeometry x="290" y="210" width="530" height="40" as="geometry" />
        </mxCell>
        <mxCell id="I0dKGSRSYeda3cMNL7MX-6" value="" style="shape=ext;double=1;rounded=0;whiteSpace=wrap;html=1;gradientColor=none;opacity=0;strokeWidth=6;" vertex="1" parent="1">
          <mxGeometry x="210" y="370" width="360" height="40" as="geometry" />
        </mxCell>
        <mxCell id="I0dKGSRSYeda3cMNL7MX-7" value="" style="shape=ext;double=1;rounded=0;whiteSpace=wrap;html=1;fillColor=#cdeb8b;strokeColor=#36393d;" vertex="1" parent="1">
          <mxGeometry x="180" y="370" width="340" height="30" as="geometry" />
        </mxCell>
        <mxCell id="I0dKGSRSYeda3cMNL7MX-9" value="&lt;h1 style=&quot;text-align: center;&quot;&gt;Heading&lt;/h1&gt;&lt;p&gt;Lorem ipsum dolor sit amet, consectetur adipisicing elit, sed do eiusmod tempor incididunt ut labore et dolore magna aliqua.&lt;/p&gt;" style="text;html=1;spacing=5;spacingTop=-20;whiteSpace=wrap;overflow=hidden;rounded=0;strokeColor=default;" vertex="1" parent="1">
          <mxGeometry x="180" y="370" width="340" height="120" as="geometry" />
        </mxCell>
        <mxCell id="I0dKGSRSYeda3cMNL7MX-10" value="" style="verticalLabelPosition=bottom;shadow=0;dashed=0;align=center;html=1;verticalAlign=top;strokeWidth=1;shape=mxgraph.mockup.graphics.simpleIcon;strokeColor=#999999;" vertex="1" parent="1">
          <mxGeometry x="680" y="370" width="250" height="120" as="geometry" />
        </mxCell>
        <mxCell id="I0dKGSRSYeda3cMNL7MX-11" value="" style="rounded=0;whiteSpace=wrap;html=1;fillColor=#000000;" vertex="1" parent="1">
          <mxGeometry x="120" y="580" width="880" height="250" as="geometry" />
        </mxCell>
        <mxCell id="I0dKGSRSYeda3cMNL7MX-12" value="Vertical Container" style="swimlane;whiteSpace=wrap;html=1;strokeColor=#ffffff;strokeWidth=3;fillColor=#00CC00;" vertex="1" parent="1">
          <mxGeometry x="130" y="590" width="860" height="230" as="geometry" />
        </mxCell>
        <mxCell id="I0dKGSRSYeda3cMNL7MX-13" value="Vertical Container" style="swimlane;whiteSpace=wrap;html=1;strokeColor=#FAFAFA;strokeWidth=2;fillColor=#00CC00;" vertex="1" parent="I0dKGSRSYeda3cMNL7MX-12">
          <mxGeometry x="10" y="40" width="410" height="180" as="geometry" />
        </mxCell>
        <mxCell id="I0dKGSRSYeda3cMNL7MX-14" value="Vertical Container" style="swimlane;whiteSpace=wrap;html=1;strokeColor=#FAFAFA;strokeWidth=2;fillColor=#00CC00;" vertex="1" parent="I0dKGSRSYeda3cMNL7MX-12">
          <mxGeometry x="440" y="40" width="410" height="180" as="geometry" />
        </mxCell>
        <mxCell id="I0dKGSRSYeda3cMNL7MX-16" value="&lt;h1&gt;&lt;span style=&quot;color: rgb(255, 255, 255); font-size: 13px; background-color: initial; font-weight: normal;&quot;&gt;6Embrace Technology:**&lt;/span&gt;&lt;br&gt;&lt;/h1&gt;&lt;div&gt;&lt;h1 style=&quot;border-color: var(--border-color); color: rgb(255, 255, 255); font-size: 13px;&quot;&gt;&lt;font style=&quot;border-color: var(--border-color);&quot;&gt;&amp;nbsp; &amp;nbsp;- Leverage productivity apps and tools to streamline tasks.&lt;/font&gt;&lt;/h1&gt;&lt;h1 style=&quot;border-color: var(--border-color); color: rgb(255, 255, 255); font-size: 13px;&quot;&gt;&lt;font style=&quot;border-color: var(--border-color);&quot;&gt;&amp;nbsp; &amp;nbsp;- Stay organized with digital calendars and project management platforms.&lt;/font&gt;&lt;/h1&gt;&lt;h1 style=&quot;border-color: var(--border-color); color: rgb(255, 255, 255); font-size: 13px;&quot;&gt;&lt;font style=&quot;border-color: var(--border-color);&quot;&gt;7. **Effective Communication:**&lt;/font&gt;amily and friends outside of work.&lt;/h1&gt;&lt;/div&gt;&lt;div&gt;&lt;font style=&quot;border-color: var(--border-color);&quot;&gt;&lt;br&gt;&lt;/font&gt;&lt;/div&gt;" style="text;html=1;spacing=5;spacingTop=-20;whiteSpace=wrap;overflow=hidden;rounded=0;" vertex="1" parent="I0dKGSRSYeda3cMNL7MX-14">
          <mxGeometry y="10" width="400" height="160" as="geometry" />
        </mxCell>
        <mxCell id="I0dKGSRSYeda3cMNL7MX-15" value="&lt;h1 style=&quot;font-size: 13px;&quot;&gt;&lt;font style=&quot;font-size: 13px;&quot;&gt;Заглавие: &quot;10 Steps to Boost Productivity and Well-being&quot;&lt;/font&gt;&lt;/h1&gt;&lt;h1 style=&quot;font-size: 13px;&quot;&gt;&lt;font style=&quot;font-size: 13px;&quot;&gt;1. Start Your Day with a Healthy Routine:**&lt;/font&gt;&lt;/h1&gt;&lt;h1 style=&quot;font-size: 13px;&quot;&gt;&lt;font style=&quot;font-size: 13px;&quot;&gt;&amp;nbsp; &amp;nbsp;- Begin your morning with a nutritious breakfast.&lt;/font&gt;&lt;/h1&gt;&lt;h1 style=&quot;font-size: 13px;&quot;&gt;&lt;font style=&quot;font-size: 13px;&quot;&gt;&amp;nbsp; &amp;nbsp;- Incorporate exercise into your daily routine to enhance energy levels.&lt;/font&gt;&lt;/h1&gt;&lt;h1 style=&quot;font-size: 13px;&quot;&gt;&lt;font style=&quot;font-size: 13px;&quot;&gt;2. **Organize Your Workspace:**&lt;/font&gt;&lt;/h1&gt;&lt;h1 style=&quot;font-size: 13px;&quot;&gt;&lt;font style=&quot;font-size: 13px;&quot;&gt;By incorporating these 10&lt;/font&gt;&lt;/h1&gt;" style="text;html=1;spacing=5;spacingTop=-20;whiteSpace=wrap;overflow=hidden;rounded=0;fontColor=#FFFFFF;" vertex="1" parent="1">
          <mxGeometry x="150" y="660" width="390" height="140" as="geometry" />
        </mxCell>
      </root>
    </mxGraphModel>
  </diagram>
</mxfile>
